<svg width="20" height="20" viewBox="0 0 20 20" fill="none" xmlns="http://www.w3.org/2000/svg">
<path d="M2.5 8.33203C2.5 7.55546 2.5 7.16718 2.62687 6.86089C2.79602 6.45251 3.12048 6.12806 3.52886 5.9589C3.83515 5.83203 4.22343 5.83203 5 5.83203V5.83203H15V5.83203C15.7766 5.83203 16.1649 5.83203 16.4711 5.9589C16.8795 6.12806 17.204 6.45251 17.3731 6.86089C17.5 7.16718 17.5 7.55546 17.5 8.33203V14.1654C17.5 15.7367 17.5 16.5224 17.0118 17.0105C16.5237 17.4987 15.738 17.4987 14.1667 17.4987H13.3333H6.66667H5.83333C4.26199 17.4987 3.47631 17.4987 2.98816 17.0105C2.5 16.5224 2.5 15.7367 2.5 14.1654V8.33203Z" stroke="#D5D4DA" stroke-width="1.66667" stroke-linejoin="round"/>
<path d="M6.66406 5.83333V4.16667C6.66406 3.24619 7.41025 2.5 8.33073 2.5H11.6641C12.5845 2.5 13.3307 3.24619 13.3307 4.16667V5.83333" stroke="#D5D4DA" stroke-width="1.66667" stroke-linejoin="round"/>
<path d="M2.5 8.33203C2.65511 9.42918 3.11249 10.4435 3.79631 11.3082C5.16218 13.0354 7.43147 14.1654 10 14.1654C12.5685 14.1654 14.8378 13.0354 16.2037 11.3082C16.8875 10.4435 17.3449 9.42918 17.5 8.33203" stroke="#D5D4DA" stroke-width="1.66667" stroke-linecap="round"/>
<path d="M9.58594 10.832H10.4193" stroke="#D5D4DA" stroke-width="1.66667" stroke-linecap="round" stroke-linejoin="round"/>
</svg>
