<svg width="20" height="20" viewBox="0 0 20 20" fill="none" xmlns="http://www.w3.org/2000/svg">
<path d="M8.54581 3.49005C8.20224 4.31463 7.23879 4.68713 6.42772 4.31279C5.08574 3.69342 3.69342 5.08574 4.31279 6.42772C4.68713 7.23879 4.31463 8.20224 3.49005 8.54581C2.19744 9.0844 2.19744 10.9156 3.49005 11.4542C4.31463 11.7978 4.68713 12.7612 4.31279 13.5723C3.69342 14.9143 5.08574 16.3066 6.42772 15.6872C7.23879 15.3129 8.20224 15.6854 8.54581 16.5099C9.0844 17.8026 10.9156 17.8026 11.4542 16.5099C11.7978 15.6854 12.7612 15.3129 13.5723 15.6872C14.9143 16.3066 16.3066 14.9143 15.6872 13.5723C15.3129 12.7612 15.6854 11.7978 16.5099 11.4542C17.8026 10.9156 17.8026 9.0844 16.5099 8.54581C15.6854 8.20224 15.3129 7.23879 15.6872 6.42772C16.3066 5.08574 14.9143 3.69342 13.5723 4.31279C12.7612 4.68713 11.7978 4.31463 11.4542 3.49005C10.9156 2.19744 9.0844 2.19744 8.54581 3.49005Z" stroke="#D5D4DA" stroke-width="1.66667" stroke-linecap="round" stroke-linejoin="round"/>
<path d="M12.5 10C12.5 11.3807 11.3807 12.5 10 12.5C8.61929 12.5 7.5 11.3807 7.5 10C7.5 8.61929 8.61929 7.5 10 7.5C11.3807 7.5 12.5 8.61929 12.5 10Z" stroke="#D5D4DA" stroke-width="1.66667"/>
</svg>
