<svg width="20" height="20" viewBox="0 0 20 20" fill="none" xmlns="http://www.w3.org/2000/svg">
<path d="M7.5 10H12.5" stroke="#D5D4DA" stroke-width="1.66667" stroke-linecap="round" stroke-linejoin="round"/>
<path d="M7.5 12.5H12.5" stroke="#D5D4DA" stroke-width="1.66667" stroke-linecap="round" stroke-linejoin="round"/>
<path d="M14.8544 5.69036C15.3361 6.17207 15.577 6.41293 15.7039 6.71922C15.8307 7.0255 15.8307 7.36613 15.8307 8.04738L15.8307 14.1667C15.8307 15.738 15.8307 16.5237 15.3426 17.0118C14.8544 17.5 14.0687 17.5 12.4974 17.5H7.4974C5.92605 17.5 5.14037 17.5 4.65222 17.0118C4.16406 16.5237 4.16406 15.738 4.16406 14.1667L4.16406 5.83333C4.16406 4.26198 4.16406 3.47631 4.65222 2.98816C5.14037 2.5 5.92605 2.5 7.4974 2.5H10.2834C10.9646 2.5 11.3052 2.5 11.6115 2.62687C11.9178 2.75373 12.1587 2.99459 12.6404 3.47631L14.8544 5.69036Z" stroke="#D5D4DA" stroke-width="1.66667" stroke-linejoin="round"/>
</svg>
