<svg width="20" height="20" viewBox="0 0 20 20" fill="none" xmlns="http://www.w3.org/2000/svg">
<path d="M2.5 6.66797C2.5 5.8914 2.5 5.50311 2.62687 5.19683C2.79602 4.78845 3.12048 4.46399 3.52886 4.29484C3.83515 4.16797 4.22343 4.16797 5 4.16797V4.16797H15V4.16797C15.7766 4.16797 16.1649 4.16797 16.4711 4.29484C16.8795 4.46399 17.204 4.78845 17.3731 5.19683C17.5 5.50311 17.5 5.8914 17.5 6.66797V13.3346C17.5 14.1112 17.5 14.4995 17.3731 14.8058C17.204 15.2142 16.8795 15.5386 16.4711 15.7078C16.1649 15.8346 15.7766 15.8346 15 15.8346V15.8346H5V15.8346C4.22343 15.8346 3.83515 15.8346 3.52886 15.7078C3.12048 15.5386 2.79602 15.2142 2.62687 14.8058C2.5 14.4995 2.5 14.1112 2.5 13.3346V6.66797Z" stroke="#D5D4DA" stroke-width="1.66667" stroke-linejoin="round"/>
<path d="M3.33594 5L8.9051 9.87301C9.53347 10.4228 10.4717 10.4228 11.1001 9.87301L16.6693 5" stroke="#D5D4DA" stroke-width="1.66667" stroke-linecap="round" stroke-linejoin="round"/>
<circle cx="15.5" cy="4.5" r="3.5" fill="#FF6584" stroke="#2F2E41" stroke-width="2"/>
</svg>
