<svg width="20" height="20" viewBox="0 0 20 20" fill="none" xmlns="http://www.w3.org/2000/svg">
<path d="M13.0273 5.96256C13.2529 5.87894 13.4969 5.83325 13.7515 5.83325C14.9021 5.83325 15.8349 6.76599 15.8349 7.91659C15.8349 9.06718 14.9021 9.99992 13.7515 9.99992C13.4969 9.99992 13.2529 9.95423 13.0273 9.87061" stroke="white" stroke-width="1.66667" stroke-linecap="round"/>
<path d="M2.5 15.8333C3.07614 13.9106 4.55832 13.3333 7.91667 13.3333C11.275 13.3333 12.7572 13.9106 13.3333 15.8333" stroke="white" stroke-width="1.66667" stroke-linecap="round"/>
<path d="M14.1667 12.5C16.1691 12.5791 17.1077 13.032 17.5 14.1667" stroke="white" stroke-width="1.66667" stroke-linecap="round"/>
<path d="M10.8333 7.91667C10.8333 9.5275 9.5275 10.8333 7.91667 10.8333C6.30584 10.8333 5 9.5275 5 7.91667C5 6.30584 6.30584 5 7.91667 5C9.5275 5 10.8333 6.30584 10.8333 7.91667Z" stroke="white" stroke-width="1.66667"/>
</svg>
